<svg width="100" height="100" viewBox="0 0 100 100" xmlns="http://www.w3.org/2000/svg">
  <defs>
    <pattern id="soccer-grass" width="10" height="10" patternUnits="userSpaceOnUse">
      <!-- Base grass color -->
      <rect width="10" height="10" fill="#2e7d32" />
      
      <!-- Grass texture -->
      <path d="M0,0 L10,0 L10,10 L0,10 Z" 
            fill="none" 
            stroke="#1b5e20" 
            stroke-width="0.5" 
            opacity="0.3" />
            
      <!-- Subtle grass lines -->
      <path d="M0,0 L10,10 M10,0 L0,10" 
            stroke="#4caf50" 
            stroke-width="0.1" 
            opacity="0.2" />
            
      <!-- Grass highlights -->
      <path d="M2,10 C3,8 4,7 5,7 C6,7 7,8 8,10" 
            stroke="#81c784" 
            stroke-width="0.5" 
            fill="none" />
      <path d="M4,10 C5,8 6,7 7,7 C8,7 9,8 10,10" 
            stroke="#a5d6a7" 
            stroke-width="0.3" 
            fill="none" />
    </pattern>
  </defs>
  
  <rect width="100%" height="100%" fill="url(#soccer-grass)" />
  
  <!-- Subtle gradient overlay -->
  <defs>
    <linearGradient id="grass-overlay" x1="0%" y1="0%" x2="0%" y2="100%">
      <stop offset="0%" style="stop-color:#2e7d32;stop-opacity:1" />
      <stop offset="100%" style="stop-color:#1b5e20;stop-opacity:1" />
    </linearGradient>
    <mask id="fade" x="0" y="0" width="100" height="100">
      <rect x="0" y="0" width="100" height="100" fill="url(#grass-overlay)" />
    </mask>
  </defs>
  <rect width="100%" height="100%" fill="url(#soccer-grass)" mask="url(#fade)" opacity="0.8" />
</svg>
