<svg width="100" height="100" viewBox="0 0 100 100" xmlns="http://www.w3.org/2000/svg">
  <defs>
    <pattern id="grass" width="30" height="30" patternUnits="userSpaceOnUse">
      <!-- Light grass background -->
      <rect width="30" height="30" fill="#e8f5e9" />
      
      <!-- Grass clusters -->
      <g fill="none" stroke-linecap="round" stroke-linejoin="round">
        <!-- Cluster 1 -->
        <path d="M5,30 C5,20 10,10 15,5 C20,10 25,20 25,30" stroke="#81c784" stroke-width="1.5" />
        <path d="M8,30 C8,22 12,14 15,10 C18,14 22,22 22,30" stroke="#66bb6a" stroke-width="1.2" />
        
        <!-- Cluster 2 -->
        <path d="M15,30 C15,22 18,14 22,7 C25,14 28,22 28,30" stroke="#4caf50" stroke-width="1.3" />
        <path d="M18,30 C18,24 20,18 22,14 C24,18 26,24 26,30" stroke="#43a047" stroke-width="1.1" />
        
        <!-- Cluster 3 -->
        <path d="M2,30 C2,25 4,18 7,12 C10,18 12,25 12,30" stroke="#a5d6a7" stroke-width="1" />
        <path d="M0,30 C0,28 1,24 3,20 C5,24 6,28 6,30" stroke="#c8e6c9" stroke-width="0.8" />
      </g>
      
      <!-- Subtle texture -->
      <rect width="30" height="30" fill="url(#grass-texture)" opacity="0.1" />
    </pattern>
    
    <!-- Subtle texture pattern -->
    <pattern id="grass-texture" width="4" height="4" patternUnits="userSpaceOnUse">
      <path d="M0,0 L4,4 M4,0 L0,4" stroke="#000000" stroke-width="0.5" opacity="0.1" />
    </pattern>
  </defs>
  
  <rect width="100%" height="100%" fill="url(#grass)" />
</svg>
