<svg width="100" height="100" viewBox="0 0 100 100" xmlns="http://www.w3.org/2000/svg">
  <defs>
    <pattern id="lava" width="100" height="100" patternUnits="userSpaceOnUse">
      <!-- Base lava color -->
      <rect width="100" height="100" fill="#e53935" />
      
      <!-- Lava flow patterns -->
      <path d="M0,80 C20,70 40,90 60,75 C80,60 100,85 100,100 L0,100 Z" 
            fill="#ff3d00" 
            opacity="0.8" />
      
      <path d="M0,90 C15,85 30,95 50,85 C70,75 85,95 100,90 L100,100 L0,100 Z" 
            fill="#ff6d00" 
            opacity="0.9" />
      
      <!-- Lava cracks -->
      <path d="M20,95 L25,90 M30,92 L35,87 M60,93 L65,88 M80,96 L85,91" 
            stroke="#ffab00" 
            stroke-width="1" 
            stroke-linecap="round" />
            
      <!-- Lava bubbles -->
      <circle cx="20" cy="85" r="3" fill="#ffd600" opacity="0.8" />
      <circle cx="50" cy="88" r="2" fill="#ffab00" opacity="0.8" />
      <circle cx="80" cy="86" r="2.5" fill="#ffd600" opacity="0.8" />
      <circle cx="40" cy="92" r="1.5" fill="#ffab00" opacity="0.8" />
      <circle cx="70" cy="89" r="1" fill="#ffd600" opacity="0.8" />
    </pattern>
    
    <!-- Glow effect -->
    <radialGradient id="lava-glow" cx="50%" cy="50%" r="50%" fx="50%" fy="50%">
      <stop offset="0%" stop-color="#ff3d00" stop-opacity="0.8" />
      <stop offset="100%" stop-color="#e53935" stop-opacity="0" />
    </radialGradient>
  </defs>
  
  <!-- Base pattern -->
  <rect width="100%" height="100%" fill="url(#lava)" />
  
  <!-- Glow overlay -->
  <rect width="100%" height="100%" fill="url(#lava-glow)" opacity="0.5" />
  
  <!-- Pulsing animation -->
  <animate attributeName="opacity" 
           values="0.8;1;0.8" 
           dur="3s" 
           repeatCount="indefinite" />
</svg>
