<svg width="100" height="100" viewBox="0 0 100 100" xmlns="http://www.w3.org/2000/svg">
  <defs>
    <pattern id="poison" width="40" height="40" patternUnits="userSpaceOnUse">
      <!-- Base poison color (deep purple) -->
      <rect width="40" height="40" fill="#4a148c" />
      
      <!-- Swirling gas patterns (purple tones) -->
      <path d="M10,20 C15,15 25,15 30,20 C35,25 25,25 20,20 C15,15 5,15 10,20 Z" 
            fill="#7b1fa2" 
            opacity="0.7" 
            filter="url(#gas-glow)" />
            
      <path d="M25,30 C30,25 35,30 30,35 C25,40 20,35 25,30 Z" 
            fill="#9c27b0" 
            opacity="0.8" 
            filter="url(#gas-glow)" />
      
      <!-- Bubbles (light purple) -->
      <g fill="#ce93d8" opacity="0.8">
        <circle cx="10" cy="10" r="1.5" />
        <circle cx="30" cy="15" r="1" />
        <circle cx="20" cy="25" r="0.8" />
        <circle cx="35" cy="35" r="1.2" />
        <circle cx="15" cy="35" r="0.7" />
      </g>
    </pattern>
    
    <!-- Glow effect for gas -->
    <filter id="gas-glow" x="-20%" y="-20%" width="140%" height="140%">
      <feGaussianBlur stdDeviation="1" result="blur" />
      <feComposite in="SourceGraphic" in2="blur" operator="over" />
    </filter>
    
    <!-- Bubble animation -->
    <g id="bubble">
      <circle cx="0" cy="0" r="0" fill="#e1bee7" opacity="0">
        <animate attributeName="r" values="0;2;0" dur="4s" repeatCount="indefinite" />
        <animate attributeName="opacity" values="0;0.8;0" dur="4s" repeatCount="indefinite" />
      </circle>
    </g>
    
    <!-- Swirl animation -->
    <animateTransform id="swirl" 
                     attributeName="patternTransform" 
                     type="rotate" 
                     from="0 20 20" 
                     to="360 20 20" 
                     dur="30s" 
                     repeatCount="indefinite" />
  </defs>
  
  <!-- Base poison -->
  <rect width="100%" height="100%" fill="url(#poison)" />
  
  <!-- Animated bubbles -->
  <use href="#bubble" x="20%" y="30%" />
  <use href="#bubble" x="50%" y="40%" />
  <use href="#bubble" x="70%" y="60%" />
  <use href="#bubble" x="30%" y="70%" />
  <use href="#bubble" x="60%" y="20%" />
  
  <!-- Apply swirl animation -->
  <rect width="100%" height="100%" fill="url(#poison)">
    <animateTransform attributeName="patternTransform" 
                     type="rotate" 
                     from="0 50 50" 
                     to="360 50 50" 
                     dur="60s" 
                     repeatCount="indefinite" />
  </rect>
  
  <!-- Toxic glow effect -->
  <rect width="100%" height="100%" fill="none" stroke="#ba68c8" stroke-width="0.5" opacity="0.5">
    <animate attributeName="opacity" values="0.3;0.7;0.3" dur="5s" repeatCount="indefinite" />
  </rect>
</svg>
