<svg width="100" height="100" viewBox="0 0 100 100" xmlns="http://www.w3.org/2000/svg">
  <defs>
    <pattern id="water" width="40" height="40" patternUnits="userSpaceOnUse">
      <!-- Base water color -->
      <rect width="40" height="40" fill="#4fc3f7" />
      
      <!-- Wave patterns (top-down view) -->
      <path d="M0,20 C10,15 15,25 20,20 C25,15 30,25 40,20" 
            fill="none" 
            stroke="#29b6f6" 
            stroke-width="1.5" 
            stroke-linecap="round" />
            
      <path d="M0,30 C10,25 15,35 20,30 C25,25 30,35 40,30" 
            fill="none" 
            stroke="#039be5" 
            stroke-width="1.2" 
            stroke-linecap="round" 
            opacity="0.8" />
      
      <!-- Ripple effects -->
      <circle cx="10" cy="25" r="2" fill="none" stroke="#81d4fa" stroke-width="0.8" />
      <circle cx="30" cy="25" r="1.5" fill="none" stroke="#81d4fa" stroke-width="0.6" />
      <circle cx="20" cy="15" r="1" fill="none" stroke="#81d4fa" stroke-width="0.5" />
      
      <!-- Light reflection -->
      <path d="M0,0 L40,0 L40,5 C30,10 20,5 10,10 C5,12 0,8 0,0 Z" 
            fill="#e1f5fe" 
            opacity="0.3" />
    </pattern>
    
    <!-- Animation for water movement -->
    <animateTransform id="waterMove" 
                     attributeName="patternTransform" 
                     type="translate" 
                     from="0 0" 
                     to="40 0" 
                     dur="10s" 
                     repeatCount="indefinite" />
    
    <!-- Ripple animation -->
    <g id="ripple">
      <circle cx="0" cy="0" r="0" fill="none" stroke="#81d4fa" stroke-width="0.5">
        <animate attributeName="r" values="0;10" dur="3s" repeatCount="indefinite" />
        <animate attributeName="opacity" values="0.8;0" dur="3s" repeatCount="indefinite" />
      </circle>
    </g>
  </defs>
  
  <!-- Base water -->
  <rect width="100%" height="100%" fill="url(#water)" />
  
  <!-- Apply movement animation -->
  <rect width="100%" height="100%" fill="url(#water)">
    <animateTransform attributeName="patternTransform" 
                     type="translate" 
                     from="0 0" 
                     to="40 0" 
                     dur="15s" 
                     repeatCount="indefinite" />
  </rect>
  
  <!-- Random ripples -->
  <use href="#ripple" x="25%" y="30%" />
  <use href="#ripple" x="60%" y="50%" />
  <use href="#ripple" x="40%" y="70%" />
  <use href="#ripple" x="75%" y="30%" />
  <use href="#ripple" x="20%" y="60%" />
  
  <!-- Light reflection animation -->
  <rect width="100%" height="20%" fill="#e1f5fe" opacity="0.1">
    <animate attributeName="opacity" 
             values="0.1;0.2;0.1" 
             dur="8s" 
             repeatCount="indefinite" />
    <animate attributeName="y" 
             values="0;5;0" 
             dur="10s" 
             repeatCount="indefinite" />
  </rect>
</svg>
